<?xml version="1.0" encoding="utf-8"?><svg viewBox="0 0 73 72" xmlns="http://www.w3.org/2000/svg" xmlns:xlink="http://www.w3.org/1999/xlink"><style>:root>svg{display:none}:root>svg:target{display:block}</style><svg viewBox="0 0 36 48" id="award" xmlns="http://www.w3.org/2000/svg"><path d="M9.064 33.995c-.81-.815-.388-.585-2.344-1.111-.888-.24-1.668-.699-2.374-1.249L.112 42.064c-.41 1.01.355 2.106 1.44 2.065l4.917-.188 3.383 3.589a1.49 1.49 0 0 0 2.467-.465L17.177 35.1c-1.012.566-2.135.898-3.296.898-1.82 0-3.53-.711-4.817-2.003Zm26.664 8.069-4.235-10.429c-.705.551-1.486 1.01-2.373 1.249-1.967.529-1.536.298-2.345 1.11a6.756 6.756 0 0 1-4.818 2.004c-1.16 0-2.284-.332-3.295-.898l4.858 11.965a1.49 1.49 0 0 0 2.466.465l3.384-3.59 4.918.19c1.084.04 1.85-1.057 1.44-2.066Zm-11.182-10.19c1.426-1.458 1.59-1.333 3.62-1.889a3.802 3.802 0 0 0 2.658-2.717c.698-2.662.517-2.34 2.422-4.289.95-.97 1.32-2.385.972-3.71-.697-2.661-.698-2.29 0-4.953a3.901 3.901 0 0 0-.972-3.71c-1.905-1.949-1.724-1.628-2.422-4.29A3.802 3.802 0 0 0 28.167 3.6c-2.602-.713-2.289-.527-4.196-2.476a3.703 3.703 0 0 0-3.63-.994c-2.6.712-2.238.713-4.843 0a3.7 3.7 0 0 0-3.63.994C9.963 3.071 10.277 2.886 7.673 3.6a3.802 3.802 0 0 0-2.657 2.717c-.697 2.662-.517 2.341-2.422 4.29a3.899 3.899 0 0 0-.972 3.71c.697 2.659.698 2.287 0 4.952a3.903 3.903 0 0 0 .972 3.711c1.905 1.948 1.724 1.627 2.422 4.29a3.802 3.802 0 0 0 2.657 2.716c2.09.572 2.245.482 3.62 1.888a3.697 3.697 0 0 0 4.642.546 3.691 3.691 0 0 1 3.97 0 3.696 3.696 0 0 0 4.641-.546ZM9.115 16.493c0-4.971 3.942-9.001 8.805-9.001 4.862 0 8.805 4.03 8.805 9.002 0 4.971-3.943 9.001-8.805 9.001-4.863 0-8.805-4.03-8.805-9.001Z"/></svg><svg viewBox="0 0 48 41" id="briefcase" xmlns="http://www.w3.org/2000/svg"><path d="M42.589 8.525h-5.07v-5.07a3.38 3.38 0 0 0-3.38-3.38H13.861a3.38 3.38 0 0 0-3.38 3.38v5.07h-5.07a5.07 5.07 0 0 0-5.07 5.07v23.658a3.38 3.38 0 0 0 3.38 3.38h40.557a3.38 3.38 0 0 0 3.38-3.38V13.595a5.07 5.07 0 0 0-5.07-5.07ZM13.86 3.455h20.278v5.07H13.861v-5.07Zm30.418 33.798H3.721V22.044H17.24v8.45h13.518v-8.45h13.52v15.21ZM20.62 22.044h6.76v5.07h-6.76v-5.07Zm-16.898-3.38v-5.07a1.69 1.69 0 0 1 1.69-1.689h37.177a1.69 1.69 0 0 1 1.69 1.69v5.07H3.721Z"/></svg><svg viewBox="0 0 24 24" id="facebook" xmlns="http://www.w3.org/2000/svg"><path d="M23.04 0H.96A.959.959 0 0 0 0 .96v22.08c0 .531.429.96.96.96h22.08c.531 0 .96-.429.96-.96V.96a.959.959 0 0 0-.96-.96Zm-2.772 7.005h-1.917c-1.503 0-1.794.714-1.794 1.764v2.313h3.588l-.468 3.621h-3.12V24h-3.741v-9.294H9.687v-3.624h3.129v-2.67c0-3.099 1.893-4.788 4.659-4.788 1.326 0 2.463.099 2.796.144v3.237h-.003Z"/></svg><svg viewBox="0 0 24 24" id="instagram" xmlns="http://www.w3.org/2000/svg"><path d="M12.002 5.847A6.144 6.144 0 0 0 5.849 12a6.144 6.144 0 0 0 6.153 6.153A6.144 6.144 0 0 0 18.155 12a6.144 6.144 0 0 0-6.153-6.153Zm0 10.152a4.007 4.007 0 0 1-4-3.999 4.007 4.007 0 0 1 4-3.999 4.007 4.007 0 0 1 3.999 4 4.007 4.007 0 0 1-4 3.998Zm6.405-11.838c-.795 0-1.437.642-1.437 1.437s.642 1.437 1.437 1.437a1.433 1.433 0 0 0 1.328-1.987 1.434 1.434 0 0 0-1.328-.887Zm5.589 7.84c0-1.657.015-3.298-.078-4.95-.093-1.92-.531-3.625-1.935-5.029C20.576.615 18.875.18 16.955.087 15.299-.006 13.658.01 12.005.01c-1.656 0-3.297-.015-4.95.078C5.135.18 3.43.618 2.027 2.022.62 3.43.185 5.13.092 7.05-.001 8.706.014 10.347.014 12s-.015 3.297.078 4.95c.093 1.92.53 3.624 1.935 5.028 1.407 1.407 3.108 1.842 5.028 1.935 1.656.093 3.297.078 4.95.078 1.656 0 3.297.015 4.95-.078 1.92-.093 3.624-.53 5.028-1.935 1.407-1.407 1.842-3.108 1.935-5.028.096-1.653.078-3.294.078-4.95Zm-2.64 7.073a3.812 3.812 0 0 1-.906 1.374 3.838 3.838 0 0 1-1.374.906c-1.578.627-5.325.486-7.074.486-1.75 0-5.5.141-7.077-.483a3.812 3.812 0 0 1-1.374-.906 3.838 3.838 0 0 1-.906-1.374c-.624-1.58-.483-5.328-.483-7.077 0-1.749-.141-5.499.483-7.077.219-.546.483-.954.906-1.374.423-.42.828-.687 1.374-.906 1.578-.624 5.328-.483 7.077-.483 1.749 0 5.499-.14 7.077.483.546.22.954.483 1.374.906.423.423.687.828.906 1.374.624 1.578.483 5.328.483 7.077 0 1.75.14 5.496-.486 7.074Z"/></svg><svg viewBox="0 0 70 71" id="letter" xmlns="http://www.w3.org/2000/svg"><path d="M68.348 1.162a2.853 2.853 0 0 0-1.417-.804 2.78 2.78 0 0 0-1.611.114L1.862 24.471c-.548.216-1.019.6-1.351 1.1A3.084 3.084 0 0 0 0 27.277c0 .608.178 1.203.51 1.704.333.5.804.885 1.352 1.1l27.69 11.52L40.63 70.398a2.983 2.983 0 0 0 1.026 1.35 2.81 2.81 0 0 0 1.57.54 2.811 2.811 0 0 0 1.622-.561 2.99 2.99 0 0 0 1.032-1.419L68.954 4.312c.197-.53.244-1.109.137-1.667a3.043 3.043 0 0 0-.743-1.483ZM43.225 60.889 35.177 39.89l13.817-14.37-4.067-4.229-13.932 14.49-20.076-8.49L61.483 8.3 43.225 60.89Z"/></svg><svg viewBox="0 0 57 71" id="map-point" xmlns="http://www.w3.org/2000/svg"><path d="M28.5 42C36.497 42 43 35.721 43 28s-6.503-14-14.5-14S14 20.279 14 28s6.503 14 14.5 14Zm0-21c3.998 0 7.25 3.14 7.25 7s-3.252 7-7.25 7-7.25-3.14-7.25-7 3.252-7 7.25-7Z"/><path d="M26.434 70.34a3.564 3.564 0 0 0 4.132 0C31.65 69.577 57.103 51.262 57 28.4 57 12.741 44.214 0 28.5 0S0 12.741 0 28.383c-.103 22.88 25.35 41.194 26.434 41.957ZM28.5 7.1c11.788 0 21.375 9.553 21.375 21.318C49.95 44.173 34.243 58.32 28.5 62.96 22.76 58.316 7.05 44.166 7.125 28.4c0-11.747 9.587-21.3 21.375-21.3Z"/></svg><svg viewBox="0 0 48 38" id="notebook" xmlns="http://www.w3.org/2000/svg"><g clip-path="url(#ga)"><path d="M29.142 8.624H41.14v3.445H29.142V8.624ZM29.142 17.238H41.14v3.445H29.142v-3.445ZM29.142 25.85H41.14v3.446H29.142v-3.445Z"/><path d="M44.568.011H3.432c-.909.001-1.78.364-2.423 1.01A3.458 3.458 0 0 0 .004 3.456v31.008c.001.914.363 1.79 1.005 2.436a3.423 3.423 0 0 0 2.423 1.01h41.136a3.425 3.425 0 0 0 2.422-1.011 3.459 3.459 0 0 0 1.006-2.435V3.456c-.001-.913-.363-1.789-1.005-2.435a3.423 3.423 0 0 0-2.423-1.01ZM3.432 3.456h18.854v31.008H3.432V3.456Zm22.282 31.008V3.456h18.854l.003 31.008H25.714Z"/></g><defs><clipPath id="ga"><path d="M0 0h48v37.92H0z"/></clipPath></defs></svg><svg viewBox="0 0 30 30" id="people" xmlns="http://www.w3.org/2000/svg"><path fill-rule="evenodd" clip-rule="evenodd" d="M17.237 7.772a4.25 4.25 0 1 1-4.72-7.068 4.25 4.25 0 0 1 4.722 7.068h-.002Zm-1.18-5.3a2.125 2.125 0 1 0-2.363 3.53 2.125 2.125 0 0 0 2.363-3.528v-.002Zm5.547.064a3.175 3.175 0 0 1 4.026.399 3.215 3.215 0 0 1-1.034 5.228 3.17 3.17 0 0 1-3.475-.693 3.213 3.213 0 0 1 .485-4.932l-.002-.002Zm1.02 3.42a1.061 1.061 0 1 0 1.498-1.504 1.082 1.082 0 0 0-.746-.318 1.06 1.06 0 0 0-1.063 1.068c.001.283.112.555.31.757v-.002ZM4.654 24.399h3.847v2.135H4.655a2.543 2.543 0 0 1-1.79-.759 2.571 2.571 0 0 1-.74-1.806v-3.846a2.118 2.118 0 0 1-1.508-.706 2.139 2.139 0 0 1-.616-1.561v-4.637a3.843 3.843 0 0 1 1.105-2.673A3.75 3.75 0 0 1 3.74 9.433h3.91a6.188 6.188 0 0 0-1.169 2.138H3.741a1.696 1.696 0 0 0-1.148.493c-.3.309-.468.723-.467 1.154v4.743H4.25v6.005a.43.43 0 0 0 .106.321.51.51 0 0 0 .298.106v.005Zm15.513-13.851a3.75 3.75 0 0 0-2.656-1.112h-5.27a3.75 3.75 0 0 0-2.635 1.112A3.843 3.843 0 0 0 8.5 13.22v6.753c-.003.58.218 1.139.616 1.56a2.123 2.123 0 0 0 1.509.705v4.937a2.555 2.555 0 0 0 .744 1.817 2.56 2.56 0 0 0 1.38.663H17a2.444 2.444 0 0 0 2.126-2.48v-4.939a2.118 2.118 0 0 0 1.509-.705 2.139 2.139 0 0 0 .616-1.56v-6.753a3.825 3.825 0 0 0-1.084-2.673v.002Zm-1.041 9.53H17v7.098a.43.43 0 0 1-.128.297.361.361 0 0 1-.297.128h-3.421a.446.446 0 0 1-.425-.425v-7.098h-2.104v-6.86c0-.43.168-.845.467-1.153.306-.304.716-.48 1.148-.493h5.27a1.653 1.653 0 0 1 1.498 1.02c.08.199.12.412.117.627v6.86Zm5.971 6.454h-3.846v-2.136h3.825a.51.51 0 0 0 .297-.106.424.424 0 0 0 .128-.323v-6.005h2.125v-4.743c0-.431-.167-.845-.468-1.154a1.696 1.696 0 0 0-1.147-.493H23.27a6.185 6.185 0 0 0-1.17-2.138h3.91c.991.01 1.938.409 2.636 1.112a3.844 3.844 0 0 1 1.105 2.673v4.637c0 .58-.22 1.136-.614 1.557a2.236 2.236 0 0 1-1.511.708v3.846a2.57 2.57 0 0 1-.74 1.806 2.544 2.544 0 0 1-1.789.759ZM6.376 1.996a3.175 3.175 0 0 0-2.945 1.98 3.224 3.224 0 0 0 .692 3.492 3.181 3.181 0 0 0 5.44-2.266 3.212 3.212 0 0 0-1.967-2.961 3.179 3.179 0 0 0-1.22-.245Zm0 4.275a1.06 1.06 0 0 1-1.063-1.069 1.071 1.071 0 0 1 1.063-1.068 1.082 1.082 0 0 1 1.062 1.068 1.071 1.071 0 0 1-1.062 1.07Z"/></svg><svg viewBox="0 0 73 72" id="phone" xmlns="http://www.w3.org/2000/svg"><g clip-path="url(#ia)"><path d="M56.929 38.995a3.785 3.785 0 0 0-5.357 0l-6.039 6.038c-2.8-.833-8.023-2.727-11.334-6.038-3.311-3.311-5.206-8.536-6.039-11.335l6.039-6.039a3.784 3.784 0 0 0 0-5.357L19.045 1.111a3.784 3.784 0 0 0-5.357 0L3.414 11.385a7.571 7.571 0 0 0-2.22 5.436c.087 5.395 1.516 24.132 16.283 38.9C32.244 70.487 50.98 71.911 56.38 72.002h.106c2 0 3.89-.788 5.323-2.22l10.274-10.274a3.785 3.785 0 0 0 0-5.357L56.929 38.995Zm-.481 25.427c-4.728-.08-20.904-1.348-33.614-14.062C10.082 37.608 8.847 21.375 8.77 16.742l7.596-7.596 9.796 9.797-4.898 4.898a3.789 3.789 0 0 0-1.03 3.455c.09.436 2.314 10.767 8.603 17.056 6.289 6.288 16.62 8.512 17.055 8.603a3.754 3.754 0 0 0 3.456-1.027l4.902-4.898 9.796 9.797-7.6 7.595Z"/></g><defs><clipPath id="ia"><path transform="translate(.5)" d="M0 0h72v72H0z"/></clipPath></defs></svg><svg viewBox="0 0 48 48" id="shop" xmlns="http://www.w3.org/2000/svg"><g clip-path="url(#ja)"><path opacity=".15" d="M43.65 13.75H4.35c-.018 0-.03.012-.03.03v5.405c0 3.544 2.94 6.419 6.558 6.419a6.593 6.593 0 0 0 5.706-3.242.993.993 0 0 1 1.716 0 6.576 6.576 0 0 0 5.7 3.242c2.448 0 4.584-1.31 5.706-3.254a.97.97 0 0 1 .834-.48h.036c.348 0 .66.184.834.48a6.586 6.586 0 0 0 5.712 3.254c3.618 0 6.558-2.875 6.558-6.419V13.78c0-.018-.012-.03-.03-.03Z"/><path d="M46.2 9.489V1.897C46.2.847 45.342 0 44.28 0H3.72C2.658 0 1.8.848 1.8 1.897v7.592c-1.002.06-1.8.883-1.8 1.89v7.806a10.38 10.38 0 0 0 .864 4.173c.258.604.576 1.173.936 1.712v20.448a1.91 1.91 0 0 0 1.92 1.897h40.56c1.062 0 1.92-.848 1.92-1.897V25.07c.366-.54.679-1.114.936-1.712.57-1.322.864-2.727.864-4.173V11.38a1.905 1.905 0 0 0-1.8-1.891ZM6.12 4.267h35.76v5.216H6.12V4.267Zm21.72 38.886h-7.68v-6.17h7.68v6.17Zm14.064 0H31.68v-8.066a1.906 1.906 0 0 0-1.92-1.897H18.24c-1.062 0-1.92.848-1.92 1.897v8.066H6.12V28.8c.174.082.354.165.54.236a10.93 10.93 0 0 0 4.224.836 11.004 11.004 0 0 0 6.546-2.146.039.039 0 0 1 .036 0c.716.53 1.496.97 2.322 1.31a10.93 10.93 0 0 0 4.224.836 11.004 11.004 0 0 0 6.546-2.146.039.039 0 0 1 .036 0c.716.53 1.496.97 2.322 1.31a10.93 10.93 0 0 0 4.224.836c1.464 0 2.88-.278 4.224-.835.18-.078.36-.155.54-.238v14.355Zm1.776-23.968c0 3.544-2.94 6.419-6.558 6.419a6.586 6.586 0 0 1-5.712-3.254.963.963 0 0 0-.834-.48h-.036a.97.97 0 0 0-.834.48 6.515 6.515 0 0 1-2.409 2.387 6.617 6.617 0 0 1-3.297.867 6.576 6.576 0 0 1-5.7-3.242.993.993 0 0 0-1.716 0 6.539 6.539 0 0 1-2.413 2.377 6.641 6.641 0 0 1-3.293.865c-3.618 0-6.558-2.875-6.558-6.419V13.78c0-.018.012-.03.03-.03h39.3c.018 0 .03.012.03.03v5.405Z"/></g><defs><clipPath id="ja"><path d="M0 0h48v47.415H0z"/></clipPath></defs></svg><svg viewBox="0 0 32 26" id="speedometer" xmlns="http://www.w3.org/2000/svg"><path d="m29.815 7.365-1.998 3.006a13 13 0 0 1-.358 12.317H4.937A13 13 0 0 1 22.015 4.57l3.007-2a16.25 16.25 0 0 0-22.88 21.743 3.25 3.25 0 0 0 2.795 1.625h22.506a3.25 3.25 0 0 0 2.827-1.625 16.25 16.25 0 0 0-.438-16.965l-.017.017ZM13.907 18.48a3.25 3.25 0 0 0 4.598 0l9.198-13.797-13.796 9.198a3.25 3.25 0 0 0 0 4.599Z"/></svg><svg viewBox="0 0 48 27" id="stats-line" xmlns="http://www.w3.org/2000/svg"><path d="M43.15 12.282a4.712 4.712 0 0 0-1.683.324l-5.74-4.784a6.214 6.214 0 0 0 .242-1.633c0-3.379-2.667-6.094-5.985-6.094C26.667.095 24 2.81 24 6.189c0 .965.24 1.864.627 2.673l-6.963 8.38a4.843 4.843 0 0 0-.845-.085c-.429 0-.833.073-1.226.18L9.458 11.09c.107-.397.18-.809.18-1.245 0-2.7-2.136-4.875-4.788-4.875C2.197 4.97.062 7.144.062 9.845c0 2.7 2.135 4.875 4.788 4.875.428 0 .833-.074 1.225-.18l6.136 6.246a4.725 4.725 0 0 0-.18 1.246c0 2.7 2.135 4.875 4.788 4.875 2.652 0 4.787-2.174 4.787-4.875 0-.578-.115-1.121-.294-1.636l6.973-8.39c.543.162 1.106.276 1.7.276a5.851 5.851 0 0 0 2.712-.685l5.742 4.785a5.14 5.14 0 0 0-.076.775c0 2.7 2.135 4.875 4.787 4.875 2.653 0 4.788-2.174 4.788-4.875 0-2.7-2.136-4.875-4.788-4.875Z"/></svg><svg viewBox="0 0 24 20" id="twitter" xmlns="http://www.w3.org/2000/svg"><path d="M24 2.465a9.74 9.74 0 0 1-2.829.772A4.96 4.96 0 0 0 23.332.49a9.613 9.613 0 0 1-3.117 1.205A4.902 4.902 0 0 0 18.58.526a4.84 4.84 0 0 0-1.956-.408c-2.723 0-4.913 2.24-4.913 4.988 0 .386.046.772.121 1.143a13.896 13.896 0 0 1-10.13-5.22 5.007 5.007 0 0 0-.668 2.518c0 1.731.867 3.257 2.19 4.155a4.901 4.901 0 0 1-2.222-.635v.062c0 2.424 1.688 4.432 3.939 4.894a5.133 5.133 0 0 1-1.294.17c-.32 0-.622-.032-.928-.076a4.931 4.931 0 0 0 4.593 3.459 9.756 9.756 0 0 1-6.1 2.131c-.412 0-.792-.015-1.187-.061a13.765 13.765 0 0 0 7.546 2.236c9.035 0 13.98-7.596 13.98-14.189 0-.216 0-.432-.015-.649.957-.71 1.795-1.59 2.463-2.579Z"/></svg><svg viewBox="0 0 48 45" id="users" xmlns="http://www.w3.org/2000/svg"><g clip-path="url(#na)"><path d="M23.84 20.802c4.305 0 7.652-3.495 7.652-7.785s-3.507-7.626-7.81-7.626c-4.305 0-7.653 3.495-7.653 7.626 0 4.29 3.507 7.785 7.812 7.785Zm-.159-12.234c.16 0 .16 0 0 0 2.55 0 4.623 2.066 4.623 4.608s-2.072 4.449-4.623 4.449a4.448 4.448 0 0 1-4.463-4.449c0-2.542 2.072-4.608 4.463-4.608ZM47.434 19.849c-3.029-2.701-7.014-4.131-11.16-3.972H35c-.32 1.27-.797 2.383-1.435 3.336.956-.159 1.753-.159 2.71-.159 3.029-.159 6.058.795 8.449 2.542v11.44h3.188v-12.71l-.478-.477ZM32.608 5.708c.798-1.906 3.03-2.86 5.102-2.065 1.913.794 2.87 3.018 2.072 5.084-.638 1.43-2.072 2.383-3.507 2.383-.319 0-.797 0-1.116-.159.16.795.16 1.589.16 2.224v.954c.318 0 .637.159.956.159 3.985 0 7.174-3.178 7.174-6.991 0-3.972-3.189-7.15-7.015-7.15-2.55 0-4.782 1.271-6.057 3.496.797.476 1.594 1.112 2.231 2.065ZM14.435 19.372c-.638-.953-1.116-2.065-1.435-3.336h-1.275A16.438 16.438 0 0 0 .566 19.849l-.478.476v12.71h3.188V21.598c2.55-1.748 5.42-2.702 8.45-2.543.956 0 1.912.16 2.71.318ZM11.725 14.13c.319 0 .638 0 .957-.16v-.953c0-.794 0-1.589.159-2.224-.319.159-.797.159-1.116.159-2.072 0-3.826-1.748-3.826-3.813 0-2.066 1.754-3.813 3.826-3.813 1.594 0 3.029.953 3.667 2.383.637-.795 1.594-1.589 2.39-2.225C15.71.148 11.407-.964 8.06 1.101 4.71 3.167 3.595 7.456 5.667 10.793c1.276 2.065 3.507 3.336 6.058 3.336ZM36.913 29.382l-.32-.477c-3.188-3.495-7.651-5.56-12.434-5.402-4.782-.159-9.405 1.907-12.593 5.402l-.32.477v12.074c0 1.43 1.117 2.701 2.71 2.701h20.406c1.435 0 2.71-1.27 2.71-2.7V29.381h-.16ZM33.724 40.98H14.435V30.494c2.55-2.542 6.058-3.813 9.724-3.813 3.508-.16 7.015 1.27 9.565 3.813V40.98Z"/></g><defs><clipPath id="na"><path d="M0 0h48v44.211H0z"/></clipPath></defs></svg><svg viewBox="0 0 24 18" id="youtube" xmlns="http://www.w3.org/2000/svg"><path d="M23.47 2.931a3.192 3.192 0 0 0-.775-1.409 2.966 2.966 0 0 0-1.34-.815c-1.867-.53-9.367-.53-9.367-.53s-7.5 0-9.367.53a2.966 2.966 0 0 0-1.34.815c-.372.39-.639.876-.775 1.41A34.16 34.16 0 0 0 0 9a34.16 34.16 0 0 0 .505 6.068c.136.533.403 1.019.775 1.409.37.39.833.671 1.34.815 1.866.53 9.367.53 9.367.53s7.5 0 9.367-.53a2.966 2.966 0 0 0 1.34-.815c.371-.39.639-.876.775-1.41.348-2 .518-4.033.505-6.067a34.162 34.162 0 0 0-.505-6.069Zm-13.88 9.85V5.218L15.815 9 9.59 12.78Z"/></svg></svg>