<svg width="513" height="512" viewBox="0 0 513 512" fill="none" xmlns="http://www.w3.org/2000/svg">
<path opacity="0.2" d="M332.796 512C321.099 511.956 309.427 510.943 297.91 508.971L131.576 480.747C37.3868 464.768 -12.7352 395.904 3.92037 305.301L33.1952 145.28C47.633 66.4533 102.789 19.4133 180.678 19.4133C192.383 19.4559 204.062 20.4694 215.586 22.4427L381.92 50.6667C476.087 66.6453 526.209 135.509 509.62 226.112L480.301 386.133C465.863 464.939 410.707 512 332.796 512Z" fill="#1A1A1A"/>
<path d="M332.796 492.608C321.099 492.564 309.427 491.551 297.91 489.579L131.576 461.355C37.3868 445.376 -12.7352 376.512 3.92037 285.867L33.1952 125.867C47.633 47.0613 102.789 0 180.678 0C192.383 0.0425414 204.062 1.05607 215.586 3.02933L381.92 31.2533C476.087 47.232 526.209 116.096 509.62 206.699L480.279 366.699C465.863 445.547 410.707 492.608 332.796 492.608Z" fill="#F2F2F2"/>
<path d="M242.687 166.741L255.573 168.875L245.571 223.488L226.741 213.419C217.249 208.256 211.683 203.968 214.743 187.349C215.637 181.065 219.075 175.375 224.308 171.515C229.541 167.656 236.146 165.941 242.687 166.741ZM257.924 323.691L270.809 325.824C277.357 326.624 283.968 324.903 289.202 321.035C294.437 317.167 297.869 311.465 298.753 305.173C301.814 288.555 296.247 284.267 286.755 279.104L267.926 269.035L257.924 323.691ZM469.944 199.957L440.603 359.957C427.85 429.461 377.196 463.595 304.918 451.328L138.584 423.125C66.3289 410.859 30.8443 362.112 43.5744 292.608L72.9157 132.608C85.668 63.0827 136.322 28.9494 208.6 41.216L374.934 69.44C447.19 81.7067 482.674 130.453 469.944 199.957ZM273.492 238.699L285.358 173.973L292.499 175.189C300.491 176.871 307.465 181.531 311.892 188.149C316.319 194.766 317.839 202.802 316.118 210.496C315.504 214.261 316.451 218.107 318.753 221.207C321.056 224.308 324.531 226.416 328.432 227.078C332.334 227.741 336.349 226.904 339.616 224.749C342.883 222.594 345.14 219.291 345.903 215.552C349.001 200.262 345.673 184.414 336.649 171.479C327.625 158.543 313.639 149.575 297.755 146.539L290.614 145.323L292.632 134.251C292.977 132.371 292.934 130.444 292.505 128.58C292.076 126.717 291.269 124.952 290.132 123.388C288.994 121.824 287.547 120.491 285.873 119.465C284.2 118.439 282.333 117.74 280.379 117.408C278.424 117.076 276.421 117.118 274.484 117.53C272.546 117.943 270.712 118.719 269.086 119.813C267.46 120.908 266.074 122.299 265.008 123.909C263.941 125.519 263.214 127.315 262.869 129.195L260.829 140.267L247.921 138.133C233.48 135.974 218.737 139.416 206.932 147.704C195.127 155.991 187.224 168.447 184.958 182.336C181.821 193.276 182.802 204.931 187.728 215.243C192.654 225.556 201.209 233.863 211.882 238.699L240.004 253.909L228.139 318.635L220.997 317.419C213.005 315.737 206.031 311.077 201.604 304.46C197.177 297.842 195.657 289.806 197.378 282.112C197.992 278.347 197.046 274.501 194.743 271.401C192.44 268.3 188.965 266.192 185.064 265.53C181.163 264.867 177.147 265.704 173.88 267.859C170.613 270.015 168.356 273.317 167.593 277.056C164.495 292.346 167.823 308.194 176.847 321.13C185.872 334.065 199.857 343.033 215.741 346.069L222.883 347.285L220.864 358.357C220.519 360.237 220.562 362.164 220.991 364.028C221.42 365.892 222.227 367.656 223.365 369.22C224.502 370.784 225.949 372.117 227.623 373.143C229.296 374.169 231.163 374.868 233.118 375.2C235.072 375.532 237.075 375.491 239.013 375.078C240.95 374.665 242.784 373.889 244.41 372.795C246.036 371.7 247.422 370.309 248.489 368.699C249.555 367.089 250.282 365.293 250.627 363.413L252.667 352.341L265.575 354.475C280.023 356.634 294.771 353.186 306.578 344.889C318.384 336.592 326.283 324.126 328.538 310.229C331.675 299.289 330.694 287.634 325.768 277.322C320.842 267.01 312.287 258.703 301.614 253.867L273.492 238.699Z" fill="#50B36F"/>
</svg>
